<svg width="30" height="27" viewBox="0 0 30 27" fill="none" xmlns="http://www.w3.org/2000/svg">
<path d="M29.4899 1.3425C29.3733 1.1392 29.2051 0.970268 29.0024 0.852759C28.7996 0.73525 28.5694 0.673324 28.335 0.673234L21.7075 0.66802L21.6976 0.666687L16.8395 0.66802C16.6257 0.668243 16.4151 0.719805 16.2253 0.81837C16.0355 0.916935 15.8722 1.05962 15.7491 1.23443L15.0043 2.29563L14.2517 1.23183C14.1287 1.05759 13.9658 0.915423 13.7764 0.817306C13.5871 0.719188 13.377 0.667989 13.1638 0.66802L8.30244 0.666687H8.30179L8.29984 0.666927L8.29788 0.666687H8.29072L1.65987 0.70314C1.42562 0.704311 1.19582 0.76718 0.993603 0.885417C0.791385 1.00365 0.62389 1.17308 0.507983 1.37665C0.392077 1.58021 0.331852 1.81072 0.333372 2.04496C0.334892 2.2792 0.398103 2.50891 0.516642 2.71095L13.876 25.5183C13.9937 25.7189 14.1618 25.8852 14.3636 26.0007C14.5654 26.1163 14.7939 26.1771 15.0264 26.1772H15.0277C15.2606 26.177 15.4894 26.1158 15.6914 25.9998C15.8933 25.8837 16.0613 25.7168 16.1788 25.5157L29.486 2.6785C29.6039 2.47574 29.6663 2.24554 29.667 2.01102C29.6676 1.77651 29.6066 1.54595 29.4899 1.3425V1.3425ZM12.473 3.33471L13.9197 5.37899C14.0427 5.55331 14.2058 5.69551 14.3952 5.79363C14.5846 5.89175 14.7949 5.9429 15.0082 5.94279H15.0102C15.2238 5.94228 15.4341 5.89058 15.6236 5.79203C15.8132 5.69348 15.9763 5.55095 16.0994 5.37638L17.533 3.33471L19.3499 3.33338L15.0245 10.605L10.6579 3.33342L12.473 3.33471ZM15.0231 22.2006L3.98604 3.35686L7.54594 3.33733L13.8838 13.8947C14.0024 14.092 14.17 14.2553 14.3703 14.3687C14.5706 14.482 14.7969 14.5417 15.0271 14.5418H15.0296L15.031 14.5416L15.0323 14.5418H15.035C15.2657 14.5413 15.4923 14.4809 15.6927 14.3665C15.8931 14.2522 16.0604 14.0878 16.1782 13.8894L22.4555 3.33478L26.0149 3.33869L15.0231 22.2006Z" fill="#3E2E83"/>
</svg>
